<svg width="18" height="17" viewBox="0 0 18 17" fill="none" xmlns="http://www.w3.org/2000/svg">
<path d="M8.80195 5.65651L6.03211 0.768349C6.12407 0.674719 6.22987 0.613302 6.33567 0.572021C5.51894 0.840842 5.14415 1.75806 5.14415 1.75806L0.0840667 10.6856C0.01287 10.9655 -0.00690607 11.2182 0.00199353 11.4408H5.52487L8.80195 5.65651Z" fill="#34A853"/>
<path d="M8.80206 5.65651L12.0791 11.4408H17.602C17.6109 11.2182 17.5911 10.9655 17.5199 10.6856L12.4599 1.75806C12.4599 1.75806 12.0841 0.840842 11.2683 0.572021C11.3731 0.613302 11.4799 0.674719 11.5718 0.768349L8.80206 5.65651Z" fill="#FBBC05"/>
<path d="M8.80194 5.65696L11.5718 0.768829C11.4798 0.675191 11.373 0.613774 11.2682 0.572493C11.1475 0.533229 11.018 0.507051 10.8776 0.5H10.7312H6.87268H6.7263C6.58689 0.506042 6.45636 0.532221 6.33567 0.572493C6.2309 0.613774 6.12406 0.675191 6.0321 0.768829L8.80194 5.65696Z" fill="#188038"/>
<path d="M5.52569 11.4407L2.78752 16.2735C2.78752 16.2735 2.69655 16.2292 2.57294 16.1375C2.96157 16.4366 3.33931 16.5 3.33931 16.5H14.0933C14.6866 16.5 14.8102 16.2735 14.8102 16.2735C14.8122 16.2725 14.8132 16.2714 14.8151 16.2705L12.079 11.4407H5.52569Z" fill="#4285F4"/>
<path d="M5.52598 11.4407H0.00311279C0.030804 12.0972 0.315599 12.4808 0.315599 12.4808L0.523259 12.8412C0.538097 12.8624 0.546997 12.8745 0.546997 12.8745L0.998907 13.6678L2.01349 15.4338C2.04315 15.5053 2.07777 15.5707 2.11436 15.6331C2.1282 15.6543 2.14105 15.6774 2.15589 15.6976C2.15984 15.7036 2.16379 15.7097 2.16776 15.7157C2.29334 15.8929 2.43376 16.0298 2.57418 16.1375C2.69779 16.2302 2.78877 16.2735 2.78877 16.2735L5.52598 11.4407Z" fill="#1967D2"/>
<path d="M12.0791 11.4407H17.6019C17.5742 12.0972 17.2894 12.4808 17.2894 12.4808L17.0818 12.8412C17.067 12.8624 17.0581 12.8745 17.0581 12.8745L16.6061 13.6678L15.5916 15.4338C15.5619 15.5053 15.5273 15.5707 15.4907 15.6331C15.4769 15.6543 15.464 15.6774 15.4492 15.6976C15.4452 15.7036 15.4413 15.7097 15.4373 15.7157C15.3117 15.8929 15.1713 16.0298 15.0309 16.1375C14.9073 16.2302 14.8163 16.2735 14.8163 16.2735L12.0791 11.4407Z" fill="#EA4335"/>
</svg>
