<svg width="121" height="138" viewBox="0 0 121 138" fill="none" xmlns="http://www.w3.org/2000/svg">
<path d="M69.8962 136.426C92.038 131.987 120.667 116.059 120.667 74.871C120.667 37.3889 93.2308 12.4295 73.5023 0.96104C69.1248 -1.58386 64 1.76294 64 6.82654V19.7783C64 29.9914 59.7061 48.6337 47.7743 56.3878C41.6827 60.3466 35.1037 54.4214 34.3633 47.1942L33.7554 41.2595C33.0487 34.3602 26.0221 30.172 20.508 34.3784C10.6021 41.9352 0.25 55.168 0.25 74.871C0.25 125.241 37.713 137.834 56.4442 137.834C57.5336 137.834 58.679 137.801 59.8711 137.733C50.6217 136.942 35.6667 131.203 35.6667 112.646C35.6667 98.1306 46.2567 88.3102 54.3029 83.5368C56.4669 82.2526 58.9999 83.92 58.9999 86.436V90.6095C58.9999 93.8034 60.2352 98.7964 63.1755 102.214C66.5032 106.082 71.3872 102.03 71.781 96.9434C71.9057 95.339 73.5193 94.3162 74.909 95.1286C79.4516 97.7835 85.25 103.454 85.25 112.646C85.25 127.153 77.2529 133.826 69.8962 136.426Z" fill="url(#paint0_linear_284_2287)"/>
<defs>
<linearGradient id="paint0_linear_284_2287" x1="60.4583" y1="0.0888062" x2="60.4583" y2="137.834" gradientUnits="userSpaceOnUse">
<stop stop-color="#E5CCF6"/>
<stop offset="0.325" stop-color="#CB98ED"/>
<stop offset="1" stop-color="#591DA9"/>
</linearGradient>
</defs>
</svg>
