<svg width="17" height="18" viewBox="0 0 17 18" fill="none" xmlns="http://www.w3.org/2000/svg">
<path fill-rule="evenodd" clip-rule="evenodd" d="M16.66 9.52575C16.66 8.92302 16.6059 8.34347 16.5055 7.78711H8.5V11.0751H13.0746C12.8775 12.1376 12.2786 13.0378 11.3784 13.6405V15.7733H14.1255C15.7327 14.2935 16.66 12.1144 16.66 9.52575Z" fill="#4285F4"/>
<path fill-rule="evenodd" clip-rule="evenodd" d="M8.49997 17.8333C10.795 17.8333 12.7191 17.0721 14.1254 15.7739L11.3784 13.6412C10.6173 14.1512 9.64361 14.4526 8.49997 14.4526C6.28611 14.4526 4.41224 12.9573 3.74383 10.9482H0.904053V13.1505C2.30269 15.9285 5.17724 17.8333 8.49997 17.8333Z" fill="#34A853"/>
<path fill-rule="evenodd" clip-rule="evenodd" d="M3.74387 10.9479C3.57387 10.4379 3.47728 9.89313 3.47728 9.3329C3.47728 8.77268 3.57387 8.2279 3.74387 7.7179V5.51562H0.904092C0.32841 6.66313 0 7.96131 0 9.3329C0 10.7045 0.32841 12.0027 0.904092 13.1502L3.74387 10.9479Z" fill="#FBBC05"/>
<path fill-rule="evenodd" clip-rule="evenodd" d="M8.49997 4.2137C9.74793 4.2137 10.8684 4.64256 11.7493 5.48483L14.1873 3.04688C12.7152 1.67528 10.7911 0.833008 8.49997 0.833008C5.17724 0.833008 2.30269 2.73778 0.904053 5.51574L3.74383 7.71802C4.41224 5.70892 6.28611 4.2137 8.49997 4.2137Z" fill="#EA4335"/>
</svg>
