<svg width="26" height="26" viewBox="0 0 26 26" fill="none" xmlns="http://www.w3.org/2000/svg">
<path d="M8.69153 13.0567C8.69153 14.2338 9.15915 15.3628 9.99153 16.1952C10.8239 17.0275 11.9529 17.4952 13.13 17.4952C14.3072 17.4952 15.4361 17.0275 16.2685 16.1952C17.1009 15.3628 17.5685 14.2338 17.5685 13.0567C17.5685 11.8795 17.1009 10.7506 16.2685 9.91817C15.4361 9.08579 14.3072 8.61816 13.13 8.61816C11.9529 8.61816 10.8239 9.08579 9.99153 9.91817C9.15915 10.7506 8.69153 11.8795 8.69153 13.0567Z" fill="#75A3EB"/>
<path d="M24.596 11.2192L22.3868 9.0064L22.3886 6.3673C22.389 6.03248 22.3233 5.70087 22.1954 5.39145C22.0674 5.08204 21.8797 4.80091 21.643 4.56415C21.4062 4.32739 21.1251 4.13967 20.8156 4.01172C20.5062 3.88377 20.1746 3.81811 19.8398 3.8185L17.2085 3.8203L14.9606 1.5688C14.7198 1.32751 14.4338 1.13608 14.1189 1.00546C13.8041 0.874849 13.4665 0.807617 13.1256 0.807617C12.7848 0.807617 12.4472 0.874849 12.1324 1.00546C11.8175 1.13608 11.5315 1.32751 11.2907 1.5688L9.0362 3.8269L6.446 3.8287C5.0375 3.8299 3.8942 4.9732 3.893 6.3817L3.8912 8.98L1.6556 11.2192C1.16872 11.707 0.895264 12.368 0.895264 13.0572C0.895264 13.7463 1.16872 14.4073 1.6556 14.8951L3.8846 17.1283L3.8828 19.7758C3.8824 20.1106 3.94806 20.4422 4.07601 20.7517C4.20396 21.0611 4.39169 21.3422 4.62844 21.579C4.8652 21.8157 5.14633 22.0034 5.45575 22.1314C5.76516 22.2593 6.09677 22.325 6.4316 22.3246L9.0713 22.3228L11.2907 24.5458C11.5315 24.7871 11.8175 24.9785 12.1324 25.1091C12.4472 25.2398 12.7848 25.307 13.1256 25.307C13.4665 25.307 13.8041 25.2398 14.1189 25.1091C14.4338 24.9785 14.7198 24.7871 14.9606 24.5458L17.1866 22.3162L19.8257 22.3144C20.5025 22.3136 21.1515 22.0444 21.6301 21.5658C22.1087 21.0872 22.3779 20.4383 22.3787 19.7614L22.3805 17.1139L24.5963 14.8951C25.6091 13.8802 25.6091 12.2341 24.596 11.2192ZM13.1357 19.9318C9.3446 19.9318 6.2711 16.8583 6.2711 13.0672C6.2711 9.2761 9.3446 6.2026 13.1357 6.2026C16.9268 6.2026 20.0006 9.2761 20.0006 13.0672C20.0003 16.8583 16.9268 19.9318 13.1357 19.9318Z" fill="#75A3EB"/>
</svg>
